<mxfile host="app.diagrams.net" modified="2022-09-04T16:59:52.775Z" agent="5.0 (X11)" etag="xC81AzimVplanbUIKsVp" version="20.2.8" type="github">
  <diagram id="PdPGKRBbVo9NFZVPzBSe" name="Page-1">
    <mxGraphModel dx="1350" dy="793" grid="1" gridSize="10" guides="1" tooltips="1" connect="1" arrows="1" fold="1" page="1" pageScale="1" pageWidth="850" pageHeight="1100" math="0" shadow="0">
      <root>
        <mxCell id="0" />
        <mxCell id="1" parent="0" />
        <UserObject label="1" lucidchartObjectId="rcJNz8vU9CGM" id="8AOV3glI9wSn0Q1u-08h-1">
          <mxCell style="html=1;overflow=block;blockSpacing=1;whiteSpace=wrap;fontSize=16.7;fontColor=#3a414a;spacing=0;fillColor=#ffffff;strokeWidth=1.5;strokeColor=none;" vertex="1" parent="1">
            <mxGeometry x="765" y="460" width="210" height="47" as="geometry" />
          </mxCell>
        </UserObject>
        <UserObject label="N" lucidchartObjectId="ncJN0gfs7Eh4" id="8AOV3glI9wSn0Q1u-08h-2">
          <mxCell style="html=1;overflow=block;blockSpacing=1;whiteSpace=wrap;fontSize=16.7;fontColor=#3a414a;spacing=0;fillColor=#ffffff;strokeWidth=1.5;strokeColor=none;" vertex="1" parent="1">
            <mxGeometry x="658" y="579" width="180" height="47" as="geometry" />
          </mxCell>
        </UserObject>
        <UserObject label="1" lucidchartObjectId="lmJNlWVhLDU1" id="8AOV3glI9wSn0Q1u-08h-3">
          <mxCell style="html=1;overflow=block;blockSpacing=1;whiteSpace=wrap;fontSize=16.7;fontColor=#3a414a;spacing=0;fillColor=#ffffff;strokeWidth=1.5;strokeColor=none;" vertex="1" parent="1">
            <mxGeometry x="345" y="312" width="180" height="47" as="geometry" />
          </mxCell>
        </UserObject>
        <UserObject label="N" lucidchartObjectId="imJNVcUpeb_N" id="8AOV3glI9wSn0Q1u-08h-4">
          <mxCell style="html=1;overflow=block;blockSpacing=1;whiteSpace=wrap;fontSize=16.7;fontColor=#3a414a;spacing=0;fillColor=#ffffff;strokeWidth=1.5;strokeColor=none;" vertex="1" parent="1">
            <mxGeometry x="601" y="314" width="180" height="47" as="geometry" />
          </mxCell>
        </UserObject>
        <UserObject label="1" lucidchartObjectId="PkJNwjsW_RhD" id="8AOV3glI9wSn0Q1u-08h-5">
          <mxCell style="html=1;overflow=block;blockSpacing=1;whiteSpace=wrap;fontSize=16.7;fontColor=#3a414a;spacing=0;fillColor=#ffffff;strokeWidth=1.5;strokeColor=none;" vertex="1" parent="1">
            <mxGeometry x="244" y="467" width="180" height="47" as="geometry" />
          </mxCell>
        </UserObject>
        <UserObject label="N" lucidchartObjectId="IkJNjlxQ61uK" id="8AOV3glI9wSn0Q1u-08h-6">
          <mxCell style="html=1;overflow=block;blockSpacing=1;whiteSpace=wrap;fontSize=16.7;fontColor=#3a414a;spacing=0;fillColor=#ffffff;strokeWidth=1.5;strokeColor=none;" vertex="1" parent="1">
            <mxGeometry x="349" y="585" width="180" height="47" as="geometry" />
          </mxCell>
        </UserObject>
        <UserObject label="USER" lucidchartObjectId="G_IN5XqUH8fy" id="8AOV3glI9wSn0Q1u-08h-7">
          <mxCell style="html=1;overflow=block;blockSpacing=1;whiteSpace=wrap;fontSize=16.7;fontColor=#3a414a;spacing=9;strokeColor=#3a414a;strokeOpacity=100;rounded=1;absoluteArcSize=1;arcSize=9;strokeWidth=0.8;" vertex="1" parent="1">
            <mxGeometry x="225" y="314" width="150" height="94" as="geometry" />
          </mxCell>
        </UserObject>
        <UserObject label="creates" lucidchartObjectId="W_INAGZQBnxG" id="8AOV3glI9wSn0Q1u-08h-8">
          <mxCell style="html=1;overflow=block;blockSpacing=1;whiteSpace=wrap;rhombus;fontSize=16.7;fontColor=#3a414a;spacing=3.8;strokeColor=#3a414a;strokeOpacity=100;rounded=1;absoluteArcSize=1;arcSize=9;strokeWidth=0.8;" vertex="1" parent="1">
            <mxGeometry x="525" y="314" width="120" height="94" as="geometry" />
          </mxCell>
        </UserObject>
        <UserObject label="Requests/NEEDs" lucidchartObjectId="h.INGabHMNxw" id="8AOV3glI9wSn0Q1u-08h-9">
          <mxCell style="html=1;overflow=block;blockSpacing=1;whiteSpace=wrap;fontSize=16.7;fontColor=#3a414a;spacing=9;strokeColor=#3a414a;strokeOpacity=100;rounded=1;absoluteArcSize=1;arcSize=9;strokeWidth=0.8;" vertex="1" parent="1">
            <mxGeometry x="825" y="314" width="165" height="94" as="geometry" />
          </mxCell>
        </UserObject>
        <UserObject label="" lucidchartObjectId="U.INvfICLhOl" id="8AOV3glI9wSn0Q1u-08h-10">
          <mxCell style="html=1;overflow=block;blockSpacing=1;whiteSpace=wrap;fontSize=13;spacing=0;strokeColor=#3a414a;strokeOpacity=100;rounded=1;absoluteArcSize=1;arcSize=9;strokeWidth=0.8;" vertex="1" parent="1">
            <mxGeometry x="375" y="361" width="150" height="1" as="geometry" />
          </mxCell>
        </UserObject>
        <UserObject label="" lucidchartObjectId="_.INbhp0JGHZ" id="8AOV3glI9wSn0Q1u-08h-11">
          <mxCell style="html=1;jettySize=18;whiteSpace=wrap;fontSize=13;strokeColor=#3a414a;strokeOpacity=100;strokeWidth=0.8;rounded=1;arcSize=12;edgeStyle=orthogonalEdgeStyle;startArrow=none;endArrow=block;endFill=1;exitX=0.985;exitY=0.5;exitPerimeter=0;entryX=-0.002;entryY=0.5;entryPerimeter=0;" edge="1" parent="1" source="8AOV3glI9wSn0Q1u-08h-8" target="8AOV3glI9wSn0Q1u-08h-9">
            <mxGeometry width="100" height="100" relative="1" as="geometry">
              <Array as="points" />
            </mxGeometry>
          </mxCell>
        </UserObject>
        <UserObject label="" lucidchartObjectId="uaJNY7MfYYSg" id="8AOV3glI9wSn0Q1u-08h-12">
          <mxCell style="html=1;overflow=block;blockSpacing=1;whiteSpace=wrap;fontSize=13;spacing=0;strokeColor=#3a414a;strokeOpacity=100;rounded=1;absoluteArcSize=1;arcSize=9;rotation=-270;strokeWidth=0.8;" vertex="1" parent="1">
            <mxGeometry x="799" y="498" width="172" height="1" as="geometry" />
          </mxCell>
        </UserObject>
        <UserObject label="gets" lucidchartObjectId="GaJN~npfOX2I" id="8AOV3glI9wSn0Q1u-08h-13">
          <mxCell style="html=1;overflow=block;blockSpacing=1;whiteSpace=wrap;rhombus;fontSize=16.7;fontColor=#3a414a;spacing=3.8;strokeColor=#3a414a;strokeOpacity=100;rounded=1;absoluteArcSize=1;arcSize=9;strokeWidth=0.8;" vertex="1" parent="1">
            <mxGeometry x="818" y="580" width="135" height="94" as="geometry" />
          </mxCell>
        </UserObject>
        <UserObject label="Assistance" lucidchartObjectId="abJN9fmzxl0q" id="8AOV3glI9wSn0Q1u-08h-14">
          <mxCell style="html=1;overflow=block;blockSpacing=1;whiteSpace=wrap;fontSize=16.7;fontColor=#3a414a;spacing=3.8;strokeColor=#3a414a;strokeOpacity=100;rounded=1;absoluteArcSize=1;arcSize=9;strokeWidth=0.8;" vertex="1" parent="1">
            <mxGeometry x="525" y="580" width="150" height="94" as="geometry" />
          </mxCell>
        </UserObject>
        <UserObject label="" lucidchartObjectId="JbJNvBebw1Zm" id="8AOV3glI9wSn0Q1u-08h-15">
          <mxCell style="html=1;overflow=block;blockSpacing=1;whiteSpace=wrap;fontSize=13;spacing=0;strokeColor=#3a414a;strokeOpacity=100;rounded=1;absoluteArcSize=1;arcSize=9;strokeWidth=0.8;" vertex="1" parent="1">
            <mxGeometry x="675" y="628" width="143" height="1" as="geometry" />
          </mxCell>
        </UserObject>
        <UserObject label="gives" lucidchartObjectId="feJNW57ruo_i" id="8AOV3glI9wSn0Q1u-08h-16">
          <mxCell style="html=1;overflow=block;blockSpacing=1;whiteSpace=wrap;rhombus;fontSize=16.7;fontColor=#3a414a;spacing=3.8;strokeColor=#3a414a;strokeOpacity=100;rounded=1;absoluteArcSize=1;arcSize=9;strokeWidth=0.8;" vertex="1" parent="1">
            <mxGeometry x="240" y="581" width="120" height="94" as="geometry" />
          </mxCell>
        </UserObject>
        <UserObject label="" lucidchartObjectId="IeJNEifWGHhe" id="8AOV3glI9wSn0Q1u-08h-17">
          <mxCell style="html=1;overflow=block;blockSpacing=1;whiteSpace=wrap;fontSize=13;spacing=0;strokeColor=#3a414a;strokeOpacity=100;rounded=1;absoluteArcSize=1;arcSize=9;strokeWidth=0.8;" vertex="1" parent="1">
            <mxGeometry x="360" y="628" width="165" height="1" as="geometry" />
          </mxCell>
        </UserObject>
        <UserObject label="" lucidchartObjectId="ReJNjcQtqUNY" id="8AOV3glI9wSn0Q1u-08h-18">
          <mxCell style="html=1;overflow=block;blockSpacing=1;whiteSpace=wrap;fontSize=13;spacing=0;strokeColor=#3a414a;strokeOpacity=100;rounded=1;absoluteArcSize=1;arcSize=9;rotation=-270;strokeWidth=0.8;" vertex="1" parent="1">
            <mxGeometry x="218" y="494" width="165" height="1" as="geometry" />
          </mxCell>
        </UserObject>
        <UserObject label="Attempts" lucidchartObjectId="aiJNqzZ5gQn8" id="8AOV3glI9wSn0Q1u-08h-19">
          <mxCell style="html=1;overflow=block;blockSpacing=1;whiteSpace=wrap;rhombus;fontSize=16.7;fontColor=#3a414a;spacing=3.8;strokeColor=#3a414a;strokeOpacity=100;rounded=1;absoluteArcSize=1;arcSize=9;strokeWidth=0.8;" vertex="1" parent="1">
            <mxGeometry x="240" y="110" width="120" height="94" as="geometry" />
          </mxCell>
        </UserObject>
        <UserObject label="" lucidchartObjectId="6iJNLJiFF-Du" id="8AOV3glI9wSn0Q1u-08h-20">
          <mxCell style="html=1;overflow=block;blockSpacing=1;whiteSpace=wrap;fontSize=13;spacing=0;strokeColor=#3a414a;strokeOpacity=100;rounded=1;absoluteArcSize=1;arcSize=9;rotation=-270;strokeWidth=0.8;" vertex="1" parent="1">
            <mxGeometry x="248" y="258" width="105" height="1" as="geometry" />
          </mxCell>
        </UserObject>
        <UserObject label="" lucidchartObjectId="djJN2iHMrt1x" id="8AOV3glI9wSn0Q1u-08h-21">
          <mxCell style="html=1;overflow=block;blockSpacing=1;whiteSpace=wrap;fontSize=13;spacing=0;strokeColor=#3a414a;strokeOpacity=100;rounded=1;absoluteArcSize=1;arcSize=9;strokeWidth=0.8;" vertex="1" parent="1">
            <mxGeometry x="360" y="157" width="158" height="1" as="geometry" />
          </mxCell>
        </UserObject>
        <UserObject label="LoginAttempt" lucidchartObjectId="ojJNbaS3Udr9" id="8AOV3glI9wSn0Q1u-08h-22">
          <mxCell style="html=1;overflow=block;blockSpacing=1;whiteSpace=wrap;fontSize=16.7;fontColor=#3a414a;spacing=9;strokeColor=#3a414a;strokeOpacity=100;rounded=1;absoluteArcSize=1;arcSize=9;strokeWidth=0.8;" vertex="1" parent="1">
            <mxGeometry x="518" y="110" width="187" height="94" as="geometry" />
          </mxCell>
        </UserObject>
        <UserObject label="Has" lucidchartObjectId="jlJNsEYai-qq" id="8AOV3glI9wSn0Q1u-08h-23">
          <mxCell style="html=1;overflow=block;blockSpacing=1;whiteSpace=wrap;rhombus;fontSize=16.7;fontColor=#3a414a;spacing=3.8;strokeColor=#3a414a;strokeOpacity=100;rounded=1;absoluteArcSize=1;arcSize=9;strokeWidth=0.8;" vertex="1" parent="1">
            <mxGeometry x="825" y="110" width="120" height="94" as="geometry" />
          </mxCell>
        </UserObject>
        <UserObject label="RequirementType" lucidchartObjectId="DlJNPdEjqJm6" id="8AOV3glI9wSn0Q1u-08h-24">
          <mxCell style="html=1;overflow=block;blockSpacing=1;whiteSpace=wrap;fontSize=16.7;fontColor=#3a414a;spacing=9;strokeColor=#3a414a;strokeOpacity=100;rounded=1;absoluteArcSize=1;arcSize=9;strokeWidth=0.8;" vertex="1" parent="1">
            <mxGeometry x="1080" y="110" width="150" height="94" as="geometry" />
          </mxCell>
        </UserObject>
        <UserObject label="" lucidchartObjectId="HlJNZs3Nje~0" id="8AOV3glI9wSn0Q1u-08h-25">
          <mxCell style="html=1;overflow=block;blockSpacing=1;whiteSpace=wrap;fontSize=13;spacing=0;strokeColor=#3a414a;strokeOpacity=100;rounded=1;absoluteArcSize=1;arcSize=9;strokeWidth=0.8;" vertex="1" parent="1">
            <mxGeometry x="945" y="158" width="135" height="1" as="geometry" />
          </mxCell>
        </UserObject>
        <UserObject label="" lucidchartObjectId="QlJNApzZ.CRU" id="8AOV3glI9wSn0Q1u-08h-26">
          <mxCell style="html=1;overflow=block;blockSpacing=1;whiteSpace=wrap;fontSize=13;spacing=0;strokeColor=#3a414a;strokeOpacity=100;rounded=1;absoluteArcSize=1;arcSize=9;rotation=-270;strokeWidth=0.8;" vertex="1" parent="1">
            <mxGeometry x="832" y="258" width="105" height="1" as="geometry" />
          </mxCell>
        </UserObject>
        <UserObject label="identifier" lucidchartObjectId="3sJNB~4k-lLE" id="8AOV3glI9wSn0Q1u-08h-27">
          <mxCell style="html=1;overflow=block;blockSpacing=1;whiteSpace=wrap;ellipse;fontSize=16.7;fontColor=#3a414a;spacing=3.8;strokeColor=#3a414a;strokeOpacity=100;rounded=1;absoluteArcSize=1;arcSize=9;strokeWidth=0.8;" vertex="1" parent="1">
            <mxGeometry x="398" y="2" width="120" height="47" as="geometry" />
          </mxCell>
        </UserObject>
        <UserObject label="otp" lucidchartObjectId="WtJNJUmabgca" id="8AOV3glI9wSn0Q1u-08h-28">
          <mxCell style="html=1;overflow=block;blockSpacing=1;whiteSpace=wrap;ellipse;fontSize=16.7;fontColor=#3a414a;spacing=3.8;strokeColor=#3a414a;strokeOpacity=100;rounded=1;absoluteArcSize=1;arcSize=9;strokeWidth=0.8;" vertex="1" parent="1">
            <mxGeometry x="540" y="2" width="120" height="47" as="geometry" />
          </mxCell>
        </UserObject>
        <UserObject label="updated_date" lucidchartObjectId="5tJNprAL6STc" id="8AOV3glI9wSn0Q1u-08h-29">
          <mxCell style="html=1;overflow=block;blockSpacing=1;whiteSpace=wrap;ellipse;fontSize=16.7;fontColor=#3a414a;spacing=3.8;strokeColor=#3a414a;strokeOpacity=100;rounded=1;absoluteArcSize=1;arcSize=9;strokeWidth=0.8;" vertex="1" parent="1">
            <mxGeometry x="675" y="3" width="120" height="47" as="geometry" />
          </mxCell>
        </UserObject>
        <UserObject label="name" lucidchartObjectId="iuJNW3ZTfW--" id="8AOV3glI9wSn0Q1u-08h-30">
          <mxCell style="html=1;overflow=block;blockSpacing=1;whiteSpace=wrap;ellipse;fontSize=16.7;fontColor=#3a414a;spacing=3.8;strokeColor=#3a414a;strokeOpacity=100;rounded=1;absoluteArcSize=1;arcSize=9;strokeWidth=0.8;" vertex="1" parent="1">
            <mxGeometry x="1260" y="62" width="120" height="47" as="geometry" />
          </mxCell>
        </UserObject>
        <UserObject label="longitude" lucidchartObjectId="QuJNZHIxo.E~" id="8AOV3glI9wSn0Q1u-08h-31">
          <mxCell style="html=1;overflow=block;blockSpacing=1;whiteSpace=wrap;ellipse;fontSize=16.7;fontColor=#3a414a;spacing=3.8;strokeColor=#3a414a;strokeOpacity=100;rounded=1;absoluteArcSize=1;arcSize=9;strokeWidth=0.8;" vertex="1" parent="1">
            <mxGeometry x="1005" y="415" width="120" height="47" as="geometry" />
          </mxCell>
        </UserObject>
        <UserObject label="latitude" lucidchartObjectId="RuJN102-A39Q" id="8AOV3glI9wSn0Q1u-08h-32">
          <mxCell style="html=1;overflow=block;blockSpacing=1;whiteSpace=wrap;ellipse;fontSize=16.7;fontColor=#3a414a;spacing=3.8;strokeColor=#3a414a;strokeOpacity=100;rounded=1;absoluteArcSize=1;arcSize=9;strokeWidth=0.8;" vertex="1" parent="1">
            <mxGeometry x="1080" y="328" width="135" height="47" as="geometry" />
          </mxCell>
        </UserObject>
        <UserObject label="longitude" lucidchartObjectId="TuJNQMaGeIF9" id="8AOV3glI9wSn0Q1u-08h-33">
          <mxCell style="html=1;overflow=block;blockSpacing=1;whiteSpace=wrap;ellipse;fontSize=16.7;fontColor=#3a414a;spacing=3.8;strokeColor=#3a414a;strokeOpacity=100;rounded=1;absoluteArcSize=1;arcSize=9;strokeWidth=0.8;" vertex="1" parent="1">
            <mxGeometry x="529" y="750" width="120" height="47" as="geometry" />
          </mxCell>
        </UserObject>
        <UserObject label="latitude" lucidchartObjectId="UuJNdHQo~Zik" id="8AOV3glI9wSn0Q1u-08h-34">
          <mxCell style="html=1;overflow=block;blockSpacing=1;whiteSpace=wrap;ellipse;fontSize=16.7;fontColor=#3a414a;spacing=3.8;strokeColor=#3a414a;strokeOpacity=100;rounded=1;absoluteArcSize=1;arcSize=9;strokeWidth=0.8;" vertex="1" parent="1">
            <mxGeometry x="375" y="735" width="120" height="47" as="geometry" />
          </mxCell>
        </UserObject>
        <UserObject label="is_approved" lucidchartObjectId="XuJNRuDjPamv" id="8AOV3glI9wSn0Q1u-08h-35">
          <mxCell style="html=1;overflow=block;blockSpacing=1;whiteSpace=wrap;ellipse;fontSize=16.7;fontColor=#3a414a;spacing=3.8;strokeColor=#3a414a;strokeOpacity=100;rounded=1;absoluteArcSize=1;arcSize=9;strokeWidth=0.8;" vertex="1" parent="1">
            <mxGeometry x="690" y="714" width="120" height="47" as="geometry" />
          </mxCell>
        </UserObject>
        <UserObject label="password" lucidchartObjectId="ZuJNPlivHsYH" id="8AOV3glI9wSn0Q1u-08h-36">
          <mxCell style="html=1;overflow=block;blockSpacing=1;whiteSpace=wrap;ellipse;fontSize=16.7;fontColor=#3a414a;spacing=3.8;strokeColor=#3a414a;strokeOpacity=100;rounded=1;absoluteArcSize=1;arcSize=9;strokeWidth=0.8;" vertex="1" parent="1">
            <mxGeometry x="60" y="442" width="120" height="47" as="geometry" />
          </mxCell>
        </UserObject>
        <UserObject label="email" lucidchartObjectId="0uJN7e9JuEss" id="8AOV3glI9wSn0Q1u-08h-37">
          <mxCell style="html=1;overflow=block;blockSpacing=1;whiteSpace=wrap;ellipse;fontSize=16.7;fontColor=#3a414a;spacing=3.8;strokeColor=#3a414a;strokeOpacity=100;rounded=1;absoluteArcSize=1;arcSize=9;strokeWidth=0.8;" vertex="1" parent="1">
            <mxGeometry x="60" y="356" width="120" height="47" as="geometry" />
          </mxCell>
        </UserObject>
        <UserObject label="name" lucidchartObjectId="1uJN71jfn-jH" id="8AOV3glI9wSn0Q1u-08h-38">
          <mxCell style="html=1;overflow=block;blockSpacing=1;whiteSpace=wrap;ellipse;fontSize=16.7;fontColor=#3a414a;spacing=3.8;strokeColor=#3a414a;strokeOpacity=100;rounded=1;absoluteArcSize=1;arcSize=9;strokeWidth=0.8;" vertex="1" parent="1">
            <mxGeometry x="60" y="270" width="120" height="47" as="geometry" />
          </mxCell>
        </UserObject>
        <UserObject label="" lucidchartObjectId="CxJN4GEl0qgc" id="8AOV3glI9wSn0Q1u-08h-39">
          <mxCell style="html=1;overflow=block;blockSpacing=1;whiteSpace=wrap;fontSize=13;spacing=0;strokeColor=#3a414a;strokeOpacity=100;rounded=1;absoluteArcSize=1;arcSize=9;rotation=-53.10387806900534;strokeWidth=0.8;" vertex="1" parent="1">
            <mxGeometry x="165" y="439" width="75" height="1" as="geometry" />
          </mxCell>
        </UserObject>
        <UserObject label="" lucidchartObjectId="6xJNIPhI9tZW" id="8AOV3glI9wSn0Q1u-08h-40">
          <mxCell style="html=1;overflow=block;blockSpacing=1;whiteSpace=wrap;fontSize=13;spacing=0;strokeColor=#3a414a;strokeOpacity=100;rounded=1;absoluteArcSize=1;arcSize=9;strokeWidth=0.8;" vertex="1" parent="1">
            <mxGeometry x="180" y="375" width="45" height="1" as="geometry" />
          </mxCell>
        </UserObject>
        <UserObject label="" lucidchartObjectId="byJNi-oWZmJ_" id="8AOV3glI9wSn0Q1u-08h-41">
          <mxCell style="html=1;overflow=block;blockSpacing=1;whiteSpace=wrap;fontSize=13;spacing=0;strokeColor=#3a414a;strokeOpacity=100;rounded=1;absoluteArcSize=1;arcSize=9;rotation=-330.5284270862517;strokeWidth=0.8;" vertex="1" parent="1">
            <mxGeometry x="178" y="310" width="47" height="1" as="geometry" />
          </mxCell>
        </UserObject>
        <UserObject label="" lucidchartObjectId="-yJNwZvVXtx2" id="8AOV3glI9wSn0Q1u-08h-42">
          <mxCell style="html=1;overflow=block;blockSpacing=1;whiteSpace=wrap;fontSize=13;spacing=0;strokeColor=#3a414a;strokeOpacity=100;rounded=1;absoluteArcSize=1;arcSize=9;rotation=-306.3689707910896;strokeWidth=0.8;" vertex="1" parent="1">
            <mxGeometry x="465" y="74" width="80" height="1" as="geometry" />
          </mxCell>
        </UserObject>
        <UserObject label="" lucidchartObjectId="ozJNt6H~HW0b" id="8AOV3glI9wSn0Q1u-08h-43">
          <mxCell style="html=1;overflow=block;blockSpacing=1;whiteSpace=wrap;fontSize=13;spacing=0;strokeColor=#3a414a;strokeOpacity=100;rounded=1;absoluteArcSize=1;arcSize=9;rotation=-270;strokeWidth=0.8;" vertex="1" parent="1">
            <mxGeometry x="570" y="82" width="60" height="1" as="geometry" />
          </mxCell>
        </UserObject>
        <UserObject label="" lucidchartObjectId="zzJN_Wo9T73z" id="8AOV3glI9wSn0Q1u-08h-44">
          <mxCell style="html=1;overflow=block;blockSpacing=1;whiteSpace=wrap;fontSize=13;spacing=0;strokeColor=#3a414a;strokeOpacity=100;rounded=1;absoluteArcSize=1;arcSize=9;rotation=-244.5695039982897;strokeWidth=0.8;" vertex="1" parent="1">
            <mxGeometry x="661" y="79" width="71" height="1" as="geometry" />
          </mxCell>
        </UserObject>
        <UserObject label="" lucidchartObjectId="~zJNWTFwG6ia" id="8AOV3glI9wSn0Q1u-08h-45">
          <mxCell style="html=1;overflow=block;blockSpacing=1;whiteSpace=wrap;fontSize=13;spacing=0;strokeColor=#3a414a;strokeOpacity=100;rounded=1;absoluteArcSize=1;arcSize=9;rotation=-45;strokeWidth=0.8;" vertex="1" parent="1">
            <mxGeometry x="1216" y="139" width="95" height="1" as="geometry" />
          </mxCell>
        </UserObject>
        <UserObject label="reference no" lucidchartObjectId="bBJN_~xtVjCp" id="8AOV3glI9wSn0Q1u-08h-46">
          <mxCell style="html=1;overflow=block;blockSpacing=1;whiteSpace=wrap;ellipse;fontSize=16.7;fontColor=#3a414a;spacing=3.8;strokeColor=#3a414a;strokeOpacity=100;rounded=1;absoluteArcSize=1;arcSize=9;strokeWidth=0.8;" vertex="1" parent="1">
            <mxGeometry x="1020" y="250" width="120" height="47" as="geometry" />
          </mxCell>
        </UserObject>
        <UserObject label="" lucidchartObjectId="zBJNqR8mjD_t" id="8AOV3glI9wSn0Q1u-08h-47">
          <mxCell style="html=1;overflow=block;blockSpacing=1;whiteSpace=wrap;fontSize=13;spacing=0;strokeColor=#3a414a;strokeOpacity=100;rounded=1;absoluteArcSize=1;arcSize=9;strokeWidth=0.8;" vertex="1" parent="1">
            <mxGeometry x="1013" y="360" width="15" height="1" as="geometry" />
          </mxCell>
        </UserObject>
        <UserObject label="" lucidchartObjectId="ZBJN1OLBCogx" id="8AOV3glI9wSn0Q1u-08h-48">
          <mxCell style="html=1;overflow=block;blockSpacing=1;whiteSpace=wrap;fontSize=13;spacing=0;strokeColor=#3a414a;strokeOpacity=100;rounded=1;absoluteArcSize=1;arcSize=9;strokeWidth=0.8;" vertex="1" parent="1">
            <mxGeometry x="990" y="355" width="90" height="1" as="geometry" />
          </mxCell>
        </UserObject>
        <UserObject label="" lucidchartObjectId="-BJNFFqpvKd~" id="8AOV3glI9wSn0Q1u-08h-49">
          <mxCell style="html=1;overflow=block;blockSpacing=1;whiteSpace=wrap;fontSize=13;spacing=0;strokeColor=#3a414a;strokeOpacity=100;rounded=1;absoluteArcSize=1;arcSize=9;rotation=-21.01176593923599;strokeWidth=0.8;" vertex="1" parent="1">
            <mxGeometry x="989" y="308" width="75" height="1" as="geometry" />
          </mxCell>
        </UserObject>
        <UserObject label="" lucidchartObjectId="kCJNf.rkItvZ" id="8AOV3glI9wSn0Q1u-08h-50">
          <mxCell style="html=1;overflow=block;blockSpacing=1;whiteSpace=wrap;fontSize=13;spacing=0;strokeColor=#3a414a;strokeOpacity=100;rounded=1;absoluteArcSize=1;arcSize=9;rotation=-129.25937291627974;strokeWidth=0.8;" vertex="1" parent="1">
            <mxGeometry x="984" y="424" width="28" height="1" as="geometry" />
          </mxCell>
        </UserObject>
        <UserObject label="" lucidchartObjectId="LDJNekrQON6u" id="8AOV3glI9wSn0Q1u-08h-51">
          <mxCell style="html=1;overflow=block;blockSpacing=1;whiteSpace=wrap;fontSize=13;spacing=0;strokeColor=#3a414a;strokeOpacity=100;rounded=1;absoluteArcSize=1;arcSize=9;rotation=-31.614698102049744;strokeWidth=0.8;" vertex="1" parent="1">
            <mxGeometry x="429" y="706" width="105" height="1" as="geometry" />
          </mxCell>
        </UserObject>
        <UserObject label="" lucidchartObjectId="2DJNXPMomkk2" id="8AOV3glI9wSn0Q1u-08h-52">
          <mxCell style="html=1;overflow=block;blockSpacing=1;whiteSpace=wrap;fontSize=13;spacing=0;strokeColor=#3a414a;strokeOpacity=100;rounded=1;absoluteArcSize=1;arcSize=9;rotation=-262.1358405454384;strokeWidth=0.8;" vertex="1" parent="1">
            <mxGeometry x="565" y="716" width="70" height="1" as="geometry" />
          </mxCell>
        </UserObject>
        <UserObject label="" lucidchartObjectId="iEJNg07iHYpY" id="8AOV3glI9wSn0Q1u-08h-53">
          <mxCell style="html=1;overflow=block;blockSpacing=1;whiteSpace=wrap;fontSize=13;spacing=0;strokeColor=#3a414a;strokeOpacity=100;rounded=1;absoluteArcSize=1;arcSize=9;rotation=-325.6817506680501;strokeWidth=0.8;" vertex="1" parent="1">
            <mxGeometry x="639" y="698" width="75" height="1" as="geometry" />
          </mxCell>
        </UserObject>
        <mxCell id="8AOV3glI9wSn0Q1u-08h-54" value="Reviews" style="rounded=0;whiteSpace=wrap;html=1;" vertex="1" parent="1">
          <mxGeometry x="1125" y="910" width="120" height="60" as="geometry" />
        </mxCell>
        <UserObject label="is_fullfilled" lucidchartObjectId="QuJNZHIxo.E~" id="8AOV3glI9wSn0Q1u-08h-55">
          <mxCell style="html=1;overflow=block;blockSpacing=1;whiteSpace=wrap;ellipse;fontSize=16.7;fontColor=#3a414a;spacing=3.8;strokeColor=#3a414a;strokeOpacity=100;rounded=1;absoluteArcSize=1;arcSize=9;strokeWidth=0.8;" vertex="1" parent="1">
            <mxGeometry x="1170" y="413" width="120" height="47" as="geometry" />
          </mxCell>
        </UserObject>
        <mxCell id="8AOV3glI9wSn0Q1u-08h-56" value="" style="endArrow=none;html=1;rounded=0;entryX=0.083;entryY=0.234;entryDx=0;entryDy=0;entryPerimeter=0;" edge="1" parent="1" target="8AOV3glI9wSn0Q1u-08h-55">
          <mxGeometry width="50" height="50" relative="1" as="geometry">
            <mxPoint x="990" y="380" as="sourcePoint" />
            <mxPoint x="770" y="750" as="targetPoint" />
            <Array as="points">
              <mxPoint x="990" y="380" />
            </Array>
          </mxGeometry>
        </mxCell>
        <UserObject label="Reviewer" lucidchartObjectId="QuJNZHIxo.E~" id="8AOV3glI9wSn0Q1u-08h-57">
          <mxCell style="html=1;overflow=block;blockSpacing=1;whiteSpace=wrap;ellipse;fontSize=16.7;fontColor=#3a414a;spacing=3.8;strokeColor=#3a414a;strokeOpacity=100;rounded=1;absoluteArcSize=1;arcSize=9;strokeWidth=0.8;" vertex="1" parent="1">
            <mxGeometry x="920" y="953" width="120" height="47" as="geometry" />
          </mxCell>
        </UserObject>
        <UserObject label="text" lucidchartObjectId="QuJNZHIxo.E~" id="8AOV3glI9wSn0Q1u-08h-58">
          <mxCell style="html=1;overflow=block;blockSpacing=1;whiteSpace=wrap;ellipse;fontSize=16.7;fontColor=#3a414a;spacing=3.8;strokeColor=#3a414a;strokeOpacity=100;rounded=1;absoluteArcSize=1;arcSize=9;strokeWidth=0.8;" vertex="1" parent="1">
            <mxGeometry x="1320" y="1000" width="120" height="47" as="geometry" />
          </mxCell>
        </UserObject>
        <UserObject label="points/value" lucidchartObjectId="QuJNZHIxo.E~" id="8AOV3glI9wSn0Q1u-08h-59">
          <mxCell style="html=1;overflow=block;blockSpacing=1;whiteSpace=wrap;ellipse;fontSize=16.7;fontColor=#3a414a;spacing=3.8;strokeColor=#3a414a;strokeOpacity=100;rounded=1;absoluteArcSize=1;arcSize=9;strokeWidth=0.8;" vertex="1" parent="1">
            <mxGeometry x="1125" y="1030" width="120" height="47" as="geometry" />
          </mxCell>
        </UserObject>
        <mxCell id="8AOV3glI9wSn0Q1u-08h-61" value="" style="endArrow=none;html=1;rounded=0;exitX=1;exitY=0;exitDx=0;exitDy=0;" edge="1" parent="1" source="8AOV3glI9wSn0Q1u-08h-57">
          <mxGeometry width="50" height="50" relative="1" as="geometry">
            <mxPoint x="1070" y="1000" as="sourcePoint" />
            <mxPoint x="1120" y="950" as="targetPoint" />
          </mxGeometry>
        </mxCell>
        <mxCell id="8AOV3glI9wSn0Q1u-08h-63" value="" style="endArrow=none;html=1;rounded=0;" edge="1" parent="1" source="8AOV3glI9wSn0Q1u-08h-59">
          <mxGeometry width="50" height="50" relative="1" as="geometry">
            <mxPoint x="1185" y="1009.2893218813452" as="sourcePoint" />
            <mxPoint x="1185" y="970" as="targetPoint" />
          </mxGeometry>
        </mxCell>
        <mxCell id="8AOV3glI9wSn0Q1u-08h-64" value="" style="endArrow=none;html=1;rounded=0;entryX=1;entryY=0.75;entryDx=0;entryDy=0;" edge="1" parent="1" source="8AOV3glI9wSn0Q1u-08h-58" target="8AOV3glI9wSn0Q1u-08h-54">
          <mxGeometry width="50" height="50" relative="1" as="geometry">
            <mxPoint x="1195" y="1040" as="sourcePoint" />
            <mxPoint x="1195" y="969.2893218813451" as="targetPoint" />
          </mxGeometry>
        </mxCell>
        <mxCell id="8AOV3glI9wSn0Q1u-08h-65" value="HAS" style="rhombus;whiteSpace=wrap;html=1;" vertex="1" parent="1">
          <mxGeometry x="1100" y="655" width="80" height="80" as="geometry" />
        </mxCell>
        <mxCell id="8AOV3glI9wSn0Q1u-08h-67" value="" style="endArrow=none;html=1;rounded=0;entryX=0.75;entryY=1;entryDx=0;entryDy=0;exitX=0.5;exitY=0;exitDx=0;exitDy=0;" edge="1" parent="1" source="8AOV3glI9wSn0Q1u-08h-65" target="8AOV3glI9wSn0Q1u-08h-9">
          <mxGeometry width="50" height="50" relative="1" as="geometry">
            <mxPoint x="1140" y="650" as="sourcePoint" />
            <mxPoint x="1050" y="580" as="targetPoint" />
          </mxGeometry>
        </mxCell>
        <mxCell id="8AOV3glI9wSn0Q1u-08h-68" value="" style="endArrow=none;html=1;rounded=0;entryX=0.5;entryY=1;entryDx=0;entryDy=0;exitX=0.425;exitY=0.033;exitDx=0;exitDy=0;exitPerimeter=0;" edge="1" parent="1" source="8AOV3glI9wSn0Q1u-08h-54" target="8AOV3glI9wSn0Q1u-08h-65">
          <mxGeometry width="50" height="50" relative="1" as="geometry">
            <mxPoint x="810" y="740" as="sourcePoint" />
            <mxPoint x="860" y="690" as="targetPoint" />
          </mxGeometry>
        </mxCell>
        <mxCell id="8AOV3glI9wSn0Q1u-08h-69" value="is a" style="triangle;whiteSpace=wrap;html=1;direction=south;rotation=0;" vertex="1" parent="1">
          <mxGeometry x="800" y="880" width="90" height="63" as="geometry" />
        </mxCell>
        <mxCell id="8AOV3glI9wSn0Q1u-08h-71" value="" style="endArrow=none;html=1;rounded=0;" edge="1" parent="1">
          <mxGeometry width="50" height="50" relative="1" as="geometry">
            <mxPoint x="230" y="880" as="sourcePoint" />
            <mxPoint x="230" y="410" as="targetPoint" />
          </mxGeometry>
        </mxCell>
        <mxCell id="8AOV3glI9wSn0Q1u-08h-73" value="" style="endArrow=none;html=1;rounded=0;entryX=0.079;entryY=0.956;entryDx=0;entryDy=0;entryPerimeter=0;" edge="1" parent="1" target="8AOV3glI9wSn0Q1u-08h-69">
          <mxGeometry width="50" height="50" relative="1" as="geometry">
            <mxPoint x="230" y="880" as="sourcePoint" />
            <mxPoint x="390" y="860" as="targetPoint" />
          </mxGeometry>
        </mxCell>
        <mxCell id="8AOV3glI9wSn0Q1u-08h-74" value="" style="endArrow=none;html=1;rounded=0;entryX=1;entryY=0.5;entryDx=0;entryDy=0;" edge="1" parent="1" source="8AOV3glI9wSn0Q1u-08h-57" target="8AOV3glI9wSn0Q1u-08h-69">
          <mxGeometry width="50" height="50" relative="1" as="geometry">
            <mxPoint x="850" y="990" as="sourcePoint" />
            <mxPoint x="900" y="940" as="targetPoint" />
          </mxGeometry>
        </mxCell>
      </root>
    </mxGraphModel>
  </diagram>
</mxfile>
